<svg id="svg" version="1.1" xmlns="http://www.w3.org/2000/svg" xmlns:xlink="http://www.w3.org/1999/xlink" width="400" height="400" viewBox="0, 0, 400,400"><g id="svgg"><path id="path0" d="M239.275 110.705 C 213.997 113.964,194.308 135.479,192.790 161.500 L 192.576 165.167 186.271 174.333 C 182.804 179.375,175.962 189.315,171.067 196.423 C 166.172 203.531,161.160 210.822,159.931 212.625 L 157.694 215.903 153.431 216.091 C 146.989 216.376,139.972 218.527,135.576 221.565 L 134.319 222.434 131.076 221.066 C 129.293 220.314,125.958 218.935,123.667 218.001 C 121.375 217.068,118.675 215.940,117.667 215.493 C 116.658 215.047,114.483 214.140,112.833 213.478 C 108.734 211.832,104.104 209.934,95.833 206.509 C 91.983 204.915,87.183 202.936,85.167 202.112 C 83.150 201.287,80.300 200.114,78.833 199.505 C 77.367 198.895,74.517 197.720,72.500 196.893 C 70.483 196.066,66.433 194.402,63.500 193.196 C 60.567 191.989,57.998 191.002,57.793 191.001 C 56.587 190.998,57.338 218.634,58.645 222.333 C 58.807 222.792,59.114 224.517,59.327 226.167 C 59.798 229.814,60.921 235.516,61.318 236.277 C 61.477 236.583,61.897 237.872,62.251 239.141 C 62.738 240.892,63.047 241.469,63.530 241.530 C 63.880 241.574,67.842 243.139,72.333 245.008 C 76.825 246.877,81.700 248.897,83.167 249.497 C 84.633 250.097,89.358 252.049,93.667 253.833 C 97.975 255.618,102.700 257.572,104.167 258.175 C 108.255 259.858,115.026 262.659,116.374 263.226 C 117.496 263.698,117.630 263.915,118.288 266.315 C 121.191 276.909,129.524 286.484,139.843 291.084 C 165.217 302.394,193.389 285.205,195.218 257.297 L 195.433 254.012 201.604 249.589 C 204.998 247.157,209.464 243.967,211.528 242.500 C 213.593 241.033,218.625 237.433,222.711 234.500 C 226.798 231.567,230.522 228.914,230.987 228.605 C 231.906 227.996,241.668 221.005,243.833 219.406 C 245.084 218.482,245.414 218.408,249.167 218.218 C 274.600 216.924,295.131 198.731,299.628 173.500 C 305.978 137.872,275.392 106.047,239.275 110.705 M254.167 128.832 C 275.004 133.288,287.573 155.040,281.029 175.325 C 272.779 200.901,240.832 208.976,221.552 190.358 C 199.534 169.098,212.115 132.064,242.667 128.207 C 244.769 127.941,251.784 128.323,254.167 128.832 M241.000 137.986 C 220.130 142.452,212.583 168.457,227.832 183.360 C 242.815 198.002,267.885 190.953,272.711 170.740 C 277.341 151.351,260.386 133.839,241.000 137.986 M162.167 225.201 C 189.814 232.078,195.550 267.112,171.405 281.624 C 157.685 289.869,139.663 285.729,130.655 272.263 C 127.494 267.536,126.791 267.458,141.005 273.422 C 152.544 278.263,158.352 278.510,165.584 274.465 C 181.417 265.611,180.357 241.457,163.833 234.579 C 163.100 234.274,161.000 233.403,159.167 232.644 C 157.333 231.885,154.633 230.766,153.167 230.157 C 151.700 229.548,149.337 228.575,147.917 227.994 C 144.700 226.679,144.707 226.577,148.083 225.657 C 153.219 224.258,157.781 224.110,162.167 225.201 " stroke="none" fill="#fafafa" fill-rule="evenodd"></path><path id="path1" d="M192.333 57.337 C 186.192 57.616,179.429 58.269,178.667 58.657 C 178.392 58.796,177.342 59.015,176.333 59.143 C 173.103 59.552,165.665 60.997,165.073 61.330 C 164.758 61.507,162.625 62.122,160.333 62.696 C 158.042 63.271,155.717 63.935,155.167 64.173 C 154.617 64.411,152.742 65.074,151.000 65.647 C 149.258 66.220,147.458 66.894,147.000 67.144 C 146.542 67.395,144.892 68.087,143.333 68.684 C 141.775 69.280,140.425 69.875,140.333 70.005 C 140.242 70.136,138.893 70.801,137.335 71.484 C 135.778 72.166,134.428 72.824,134.335 72.945 C 134.243 73.067,133.042 73.736,131.667 74.432 C 128.817 75.874,126.757 77.035,124.833 78.284 C 124.100 78.760,122.675 79.652,121.667 80.267 C 120.658 80.881,119.713 81.598,119.567 81.859 C 119.420 82.120,119.154 82.333,118.976 82.333 C 118.533 82.333,116.089 83.966,114.860 85.083 C 114.305 85.587,113.740 86.000,113.604 86.000 C 113.467 86.000,112.563 86.668,111.594 87.485 C 110.626 88.302,109.383 89.338,108.833 89.788 C 102.809 94.709,95.584 101.856,90.592 107.833 C 89.367 109.300,87.903 111.048,87.339 111.718 C 86.775 112.389,85.924 113.514,85.448 114.218 C 84.972 114.923,84.489 115.575,84.374 115.667 C 83.912 116.038,82.000 118.967,82.000 119.304 C 82.000 119.504,81.857 119.667,81.683 119.667 C 81.508 119.667,80.817 120.604,80.146 121.750 C 79.475 122.896,78.814 123.908,78.676 124.000 C 78.538 124.092,77.925 125.142,77.314 126.333 C 76.703 127.525,76.081 128.584,75.933 128.687 C 75.621 128.904,73.074 133.645,71.825 136.333 C 71.357 137.342,70.556 138.992,70.046 140.000 C 69.537 141.008,68.769 142.808,68.340 144.000 C 67.911 145.192,67.386 146.392,67.173 146.667 C 66.960 146.942,66.301 148.667,65.710 150.500 C 65.118 152.333,64.412 154.314,64.142 154.902 C 63.871 155.490,63.170 157.890,62.584 160.235 C 61.997 162.581,61.420 164.575,61.301 164.667 C 61.051 164.859,59.457 172.939,59.131 175.667 C 59.010 176.675,58.796 177.650,58.656 177.833 C 58.378 178.196,57.333 187.222,57.333 189.259 L 57.333 190.515 67.417 194.654 C 72.962 196.931,79.300 199.532,81.500 200.434 C 89.068 203.538,90.855 204.274,98.667 207.505 C 102.975 209.287,107.700 211.237,109.167 211.838 C 110.633 212.439,115.358 214.388,119.667 216.168 C 123.975 217.948,128.983 219.992,130.795 220.711 L 134.091 222.017 138.129 220.001 C 143.375 217.381,148.304 216.046,153.756 215.768 L 157.678 215.568 165.061 204.867 C 169.121 198.982,173.477 192.667,174.740 190.833 C 176.003 189.000,180.144 183.000,183.941 177.500 C 192.959 164.441,192.208 165.835,192.479 161.667 C 194.399 132.190,217.206 110.524,246.333 110.505 C 282.913 110.481,308.326 144.026,298.472 179.329 C 292.165 201.925,270.114 218.667,246.659 218.667 C 245.193 218.667,244.599 219.050,231.151 228.674 C 223.459 234.178,214.917 240.275,212.167 242.223 C 209.417 244.171,206.417 246.322,205.500 247.002 C 204.583 247.682,202.022 249.527,199.808 251.102 L 195.782 253.966 195.390 257.900 C 191.054 301.423,131.805 308.502,118.343 267.104 C 117.347 264.041,117.137 263.668,116.203 263.297 C 115.633 263.071,112.842 261.921,110.000 260.742 C 107.158 259.563,103.183 257.922,101.167 257.096 C 95.371 254.722,92.470 253.524,88.000 251.662 C 85.708 250.707,82.633 249.435,81.167 248.834 C 79.700 248.234,76.850 247.062,74.833 246.231 C 67.285 243.119,63.668 241.667,63.467 241.667 C 63.142 241.667,63.665 244.026,64.316 245.500 C 64.640 246.233,65.316 248.108,65.818 249.667 C 66.319 251.225,66.915 252.800,67.141 253.167 C 67.368 253.533,67.979 255.011,68.500 256.449 C 69.021 257.888,69.612 259.238,69.813 259.449 C 70.015 259.661,70.622 260.941,71.162 262.296 C 71.701 263.650,72.383 265.075,72.677 265.463 C 72.970 265.850,73.709 267.142,74.318 268.333 C 74.928 269.525,75.705 270.858,76.046 271.295 C 76.388 271.732,76.667 272.227,76.667 272.394 C 76.667 272.562,77.223 273.554,77.903 274.599 C 78.582 275.645,79.642 277.322,80.258 278.327 C 80.874 279.333,81.485 280.233,81.617 280.327 C 81.748 280.422,82.370 281.314,83.000 282.309 C 83.630 283.304,84.562 284.574,85.072 285.133 C 85.583 285.692,86.000 286.260,86.000 286.396 C 86.000 286.533,86.668 287.437,87.485 288.406 C 89.093 290.311,90.021 291.429,91.714 293.500 C 93.452 295.625,101.901 304.129,105.000 306.871 C 106.558 308.250,108.317 309.818,108.908 310.356 C 109.499 310.893,110.099 311.333,110.243 311.333 C 110.386 311.333,111.126 311.896,111.887 312.583 C 113.547 314.084,118.463 317.664,118.874 317.672 C 119.035 317.676,119.486 318.016,119.877 318.428 C 120.268 318.841,121.018 319.395,121.544 319.660 C 122.070 319.926,122.939 320.448,123.475 320.821 C 125.078 321.938,129.001 324.209,131.667 325.563 C 133.042 326.262,134.243 326.933,134.335 327.055 C 134.428 327.176,135.778 327.834,137.335 328.516 C 138.893 329.199,140.242 329.864,140.333 329.995 C 140.425 330.125,141.775 330.717,143.333 331.310 C 144.892 331.903,146.467 332.574,146.833 332.801 C 147.200 333.028,149.075 333.715,151.000 334.327 C 152.925 334.939,154.655 335.557,154.845 335.701 C 155.035 335.846,157.285 336.504,159.845 337.165 C 162.405 337.825,164.800 338.508,165.167 338.682 C 165.972 339.063,171.433 340.134,175.333 340.675 C 176.892 340.891,178.467 341.199,178.833 341.358 C 182.751 343.062,217.718 343.117,220.458 341.423 C 220.631 341.316,222.136 341.028,223.803 340.783 C 228.117 340.148,234.137 338.964,234.333 338.713 C 234.425 338.596,236.525 337.998,239.000 337.384 C 241.475 336.771,243.950 336.062,244.500 335.809 C 245.050 335.555,247.000 334.838,248.833 334.215 C 250.667 333.591,253.436 332.538,254.987 331.874 C 256.539 331.210,257.991 330.667,258.214 330.667 C 258.437 330.667,258.825 330.460,259.077 330.208 C 259.329 329.956,260.802 329.193,262.349 328.513 C 263.897 327.833,265.239 327.166,265.331 327.032 C 265.424 326.898,266.512 326.319,267.748 325.746 C 268.985 325.172,270.499 324.320,271.113 323.852 C 271.727 323.383,272.375 323.000,272.553 323.000 C 272.731 323.000,273.869 322.334,275.083 321.520 C 276.297 320.705,277.736 319.809,278.280 319.527 C 278.825 319.246,279.472 318.824,279.718 318.591 C 279.965 318.357,280.842 317.727,281.667 317.190 C 286.614 313.974,294.638 307.237,300.833 301.099 C 303.353 298.603,308.253 293.276,308.897 292.333 C 309.210 291.875,309.737 291.303,310.068 291.063 C 310.400 290.823,310.881 290.220,311.138 289.723 C 311.395 289.226,311.962 288.448,312.399 287.993 C 313.555 286.789,317.667 281.147,317.667 280.763 C 317.667 280.584,317.982 280.151,318.367 279.802 C 318.753 279.454,319.299 278.718,319.582 278.167 C 319.864 277.617,320.749 276.162,321.547 274.934 C 322.346 273.707,323.000 272.556,323.000 272.377 C 323.000 272.198,323.354 271.627,323.787 271.109 C 324.220 270.591,325.075 269.117,325.687 267.833 C 326.299 266.550,326.902 265.456,327.027 265.402 C 327.152 265.348,327.828 263.923,328.529 262.235 C 329.230 260.548,329.923 259.083,330.069 258.980 C 330.214 258.878,330.787 257.550,331.342 256.030 C 331.897 254.510,332.587 252.810,332.875 252.252 C 333.164 251.694,333.837 249.872,334.372 248.202 C 334.907 246.533,335.552 244.717,335.805 244.167 C 336.059 243.617,336.740 241.217,337.319 238.833 C 337.898 236.450,338.505 234.251,338.669 233.948 C 339.133 233.087,340.560 225.096,341.903 215.833 C 342.663 210.590,342.663 189.410,341.903 184.167 C 340.550 174.838,339.132 166.905,338.664 166.052 C 338.497 165.749,338.048 164.150,337.666 162.500 C 336.926 159.303,336.145 156.589,335.649 155.500 C 335.483 155.133,334.914 153.479,334.386 151.823 C 333.858 150.167,333.184 148.345,332.888 147.773 C 332.593 147.201,331.897 145.490,331.342 143.970 C 330.787 142.450,330.214 141.122,330.069 141.020 C 329.923 140.917,329.230 139.452,328.529 137.765 C 327.828 136.077,327.152 134.652,327.027 134.598 C 326.902 134.544,326.299 133.450,325.687 132.167 C 325.075 130.883,324.220 129.409,323.787 128.891 C 323.354 128.373,323.000 127.802,323.000 127.623 C 323.000 127.444,322.350 126.293,321.556 125.066 C 320.762 123.838,319.759 122.196,319.328 121.417 C 318.897 120.638,318.418 120.000,318.264 120.000 C 318.110 120.000,317.851 119.662,317.689 119.250 C 317.359 118.409,314.275 114.139,312.667 112.297 C 312.089 111.635,311.338 110.636,310.998 110.076 C 310.657 109.516,310.172 108.933,309.919 108.779 C 309.667 108.626,309.205 108.125,308.894 107.667 C 308.257 106.729,303.369 101.413,300.833 98.901 C 294.632 92.756,286.583 86.000,281.667 82.812 C 280.842 82.277,280.092 81.742,280.000 81.623 C 279.908 81.504,278.887 80.828,277.730 80.120 C 276.573 79.412,274.473 78.121,273.063 77.250 C 271.653 76.379,269.375 75.112,268.000 74.435 C 266.625 73.757,265.424 73.095,265.331 72.963 C 265.239 72.832,263.897 72.167,262.349 71.487 C 260.802 70.807,259.329 70.044,259.077 69.792 C 258.825 69.540,258.437 69.333,258.214 69.333 C 257.991 69.333,256.539 68.791,254.987 68.128 C 253.436 67.465,250.667 66.407,248.833 65.777 C 247.000 65.148,245.050 64.422,244.500 64.165 C 243.950 63.908,241.475 63.205,239.000 62.604 C 236.525 62.003,234.425 61.413,234.333 61.292 C 234.155 61.059,228.773 59.976,223.833 59.180 C 222.183 58.914,220.158 58.554,219.333 58.379 C 215.277 57.521,200.681 56.958,192.333 57.337 M242.929 128.352 C 216.601 131.232,202.207 160.527,215.953 183.253 C 230.447 207.218,266.142 205.604,278.794 180.412 C 291.423 155.266,270.782 125.305,242.929 128.352 M252.284 137.706 C 270.536 141.637,279.556 163.158,269.479 178.734 C 255.113 200.942,221.121 191.890,219.783 165.500 C 218.888 147.842,235.075 133.999,252.284 137.706 M151.550 225.010 C 149.100 225.397,145.667 226.350,145.667 226.642 C 145.667 226.874,147.475 227.660,157.667 231.858 C 172.074 237.792,177.091 243.776,177.071 255.000 C 177.040 272.107,160.969 281.831,144.167 274.911 C 137.146 272.020,132.489 270.078,130.865 269.364 C 128.599 268.369,128.536 268.514,130.076 271.167 C 140.847 289.722,168.934 290.380,181.093 272.362 C 195.805 250.561,177.322 220.936,151.550 225.010 " stroke="none" fill="#040404" fill-rule="evenodd"></path><path id="path2" d="M272.333 139.104 C 272.333 139.162,272.821 139.649,273.417 140.188 L 274.500 141.167 273.521 140.083 C 272.608 139.074,272.333 138.847,272.333 139.104 M210.459 164.333 C 210.459 166.442,210.514 167.304,210.580 166.250 C 210.646 165.196,210.646 163.471,210.580 162.417 C 210.514 161.362,210.459 162.225,210.459 164.333 M273.450 164.333 C 273.450 165.892,273.507 166.529,273.577 165.750 C 273.648 164.971,273.648 163.696,273.577 162.917 C 273.507 162.137,273.450 162.775,273.450 164.333 M192.433 163.667 C 192.433 164.675,192.496 165.087,192.572 164.583 C 192.648 164.079,192.648 163.254,192.572 162.750 C 192.496 162.246,192.433 162.658,192.433 163.667 M282.767 164.333 C 282.767 165.342,282.829 165.754,282.905 165.250 C 282.982 164.746,282.982 163.921,282.905 163.417 C 282.829 162.912,282.767 163.325,282.767 164.333 M228.167 184.000 C 228.883 184.733,229.544 185.333,229.635 185.333 C 229.727 185.333,229.216 184.733,228.500 184.000 C 227.784 183.267,227.123 182.667,227.031 182.667 C 226.940 182.667,227.451 183.267,228.167 184.000 M273.146 188.750 L 272.167 189.833 273.250 188.854 C 274.260 187.942,274.487 187.667,274.229 187.667 C 274.172 187.667,273.684 188.154,273.146 188.750 M245.917 200.569 C 246.329 200.648,247.004 200.648,247.417 200.569 C 247.829 200.489,247.492 200.424,246.667 200.424 C 245.842 200.424,245.504 200.489,245.917 200.569 M157.816 215.318 C 157.641 215.493,156.298 215.687,154.832 215.751 L 152.167 215.866 154.876 215.933 C 156.939 215.984,157.684 215.881,158.000 215.500 C 158.457 214.949,158.320 214.813,157.816 215.318 M155.083 224.572 C 155.587 224.648,156.412 224.648,156.917 224.572 C 157.421 224.496,157.008 224.433,156.000 224.433 C 154.992 224.433,154.579 224.496,155.083 224.572 M177.333 233.500 C 178.329 234.508,179.219 235.333,179.311 235.333 C 179.402 235.333,178.662 234.508,177.667 233.500 C 176.671 232.492,175.781 231.667,175.689 231.667 C 175.598 231.667,176.338 232.492,177.333 233.500 M186.440 255.333 C 186.440 256.525,186.501 257.012,186.574 256.417 C 186.648 255.821,186.648 254.846,186.574 254.250 C 186.501 253.654,186.440 254.142,186.440 255.333 M170.315 270.917 L 169.167 272.167 170.417 271.018 C 171.580 269.949,171.820 269.667,171.565 269.667 C 171.510 269.667,170.947 270.229,170.315 270.917 M127.986 283.083 C 129.367 284.555,129.667 284.820,129.667 284.569 C 129.667 284.516,128.954 283.803,128.083 282.986 L 126.500 281.500 127.986 283.083 M154.576 285.907 C 155.168 285.981,156.218 285.982,156.909 285.910 C 157.601 285.838,157.117 285.778,155.833 285.776 C 154.550 285.775,153.984 285.834,154.576 285.907 " stroke="none" fill="#848484" fill-rule="evenodd"></path><path id="path3" d="" stroke="none" fill="#7c7c7c" fill-rule="evenodd"></path><path id="path4" d="" stroke="none" fill="#747474" fill-rule="evenodd"></path><path id="path5" d="M245.750 218.563 C 246.071 218.647,246.596 218.647,246.917 218.563 C 247.237 218.479,246.975 218.411,246.333 218.411 C 245.692 218.411,245.429 218.479,245.750 218.563 M195.417 255.500 C 195.421 256.233,195.489 256.494,195.569 256.079 C 195.649 255.665,195.646 255.065,195.562 254.746 C 195.479 254.427,195.414 254.767,195.417 255.500 " stroke="none" fill="#5e5e5e" fill-rule="evenodd"></path><path id="path6" d="" stroke="none" fill="#3c3c3c" fill-rule="evenodd"></path><path id="path7" d="" stroke="none" fill="#343434" fill-rule="evenodd"></path><path id="path8" d="" stroke="none" fill="#282828" fill-rule="evenodd"></path></g></svg>