<svg id="svg" version="1.1" xmlns="http://www.w3.org/2000/svg" xmlns:xlink="http://www.w3.org/1999/xlink" width="400" height="400" viewBox="0, 0, 400,400"><g id="svgg"><path id="path0" d="M171.000 197.314 C 171.000 224.052,171.114 238.031,171.333 238.167 C 171.517 238.280,171.667 238.205,171.667 238.000 C 171.667 237.795,171.817 237.720,172.000 237.833 C 172.183 237.947,172.333 237.872,172.333 237.667 C 172.333 237.462,172.483 237.387,172.667 237.500 C 172.850 237.613,173.000 237.538,173.000 237.333 C 173.000 237.128,173.150 237.053,173.333 237.167 C 173.517 237.280,173.667 237.205,173.667 237.000 C 173.667 236.795,173.817 236.720,174.000 236.833 C 174.183 236.947,174.333 236.872,174.333 236.667 C 174.333 236.462,174.468 236.377,174.632 236.478 C 174.796 236.580,175.022 236.423,175.135 236.130 C 175.251 235.826,175.553 235.680,175.836 235.788 C 176.110 235.893,176.333 235.809,176.333 235.601 C 176.333 235.393,176.426 235.315,176.540 235.429 C 176.653 235.542,176.965 235.416,177.233 235.148 C 177.501 234.880,177.881 234.760,178.078 234.882 C 178.287 235.011,178.340 234.947,178.205 234.728 C 178.062 234.497,178.329 234.275,178.903 234.151 C 180.319 233.842,181.334 233.270,181.109 232.907 C 180.998 232.727,181.114 232.649,181.367 232.734 C 181.620 232.818,182.028 232.686,182.274 232.440 C 182.519 232.195,182.858 232.079,183.027 232.183 C 183.195 232.287,183.333 232.205,183.333 232.000 C 183.333 231.795,183.468 231.710,183.632 231.812 C 183.796 231.913,184.022 231.756,184.135 231.464 C 184.251 231.160,184.553 231.013,184.836 231.122 C 185.110 231.227,185.333 231.158,185.333 230.970 C 185.333 230.781,185.483 230.720,185.667 230.833 C 185.850 230.947,186.000 230.855,186.000 230.631 C 186.000 230.406,186.088 230.310,186.194 230.417 C 186.301 230.524,186.676 230.324,187.028 229.972 C 187.379 229.621,187.967 229.333,188.333 229.333 C 188.700 229.333,189.000 229.188,189.000 229.010 C 189.000 228.833,189.224 228.773,189.497 228.878 C 189.781 228.987,190.082 228.840,190.199 228.536 C 190.311 228.244,190.522 228.077,190.667 228.167 C 190.812 228.256,191.022 228.090,191.135 227.797 C 191.251 227.493,191.553 227.346,191.836 227.455 C 192.110 227.560,192.333 227.492,192.333 227.303 C 192.333 227.115,192.483 227.053,192.667 227.167 C 192.850 227.280,193.000 227.205,193.000 227.000 C 193.000 226.795,193.150 226.720,193.333 226.833 C 193.517 226.947,193.667 226.855,193.667 226.631 C 193.667 226.406,193.764 226.320,193.884 226.439 C 194.003 226.559,194.281 226.410,194.501 226.109 C 194.721 225.809,195.260 225.524,195.700 225.476 C 196.140 225.428,196.621 225.376,196.770 225.361 C 196.918 225.346,196.932 225.160,196.802 224.948 C 196.644 224.694,196.711 224.655,196.999 224.833 C 197.269 225.000,197.590 224.889,197.846 224.539 C 198.072 224.230,198.612 223.908,199.044 223.825 C 199.477 223.741,199.882 223.521,199.944 223.335 C 200.006 223.148,200.194 223.081,200.362 223.184 C 200.529 223.288,200.667 223.205,200.667 223.000 C 200.667 222.795,200.817 222.720,201.000 222.833 C 201.183 222.947,201.333 222.872,201.333 222.667 C 201.333 222.462,201.483 222.387,201.667 222.500 C 201.850 222.613,202.000 222.522,202.000 222.297 C 202.000 222.073,202.098 221.987,202.217 222.106 C 202.336 222.225,202.602 222.094,202.807 221.813 C 203.012 221.533,203.510 221.279,203.914 221.248 C 204.319 221.218,204.729 220.984,204.827 220.728 C 204.926 220.473,205.235 220.352,205.515 220.460 C 205.804 220.570,206.107 220.441,206.214 220.163 C 206.318 219.892,206.537 219.753,206.702 219.855 C 206.866 219.956,207.000 219.872,207.000 219.667 C 207.000 219.462,207.150 219.387,207.333 219.500 C 207.517 219.613,207.667 219.538,207.667 219.333 C 207.667 219.128,207.817 219.053,208.000 219.167 C 208.183 219.280,208.333 219.205,208.333 219.000 C 208.333 218.795,208.483 218.720,208.667 218.833 C 208.850 218.947,209.000 218.872,209.000 218.667 C 209.000 218.462,209.150 218.387,209.333 218.500 C 209.517 218.613,209.667 218.538,209.667 218.333 C 209.667 218.128,209.817 218.053,210.000 218.167 C 210.183 218.280,210.333 218.205,210.333 218.000 C 210.333 217.795,210.468 217.710,210.632 217.812 C 210.796 217.913,211.022 217.756,211.135 217.464 C 211.251 217.160,211.553 217.013,211.836 217.122 C 212.110 217.227,212.333 217.158,212.333 216.970 C 212.333 216.781,212.471 216.712,212.638 216.816 C 212.806 216.919,212.996 216.845,213.061 216.651 C 213.126 216.456,213.417 216.262,213.709 216.219 C 214.001 216.176,214.490 215.891,214.796 215.585 C 215.102 215.279,215.572 215.113,215.840 215.215 C 216.113 215.320,216.418 215.168,216.532 214.870 C 216.645 214.577,216.871 214.420,217.035 214.522 C 217.199 214.623,217.333 214.538,217.333 214.333 C 217.333 214.128,217.483 214.053,217.667 214.167 C 217.850 214.280,218.000 214.205,218.000 214.000 C 218.000 213.795,218.150 213.720,218.333 213.833 C 218.517 213.947,218.667 213.855,218.667 213.631 C 218.667 213.406,218.760 213.315,218.873 213.429 C 218.987 213.542,219.299 213.416,219.567 213.148 C 219.835 212.880,220.192 212.746,220.360 212.850 C 220.529 212.954,220.667 212.872,220.667 212.667 C 220.667 212.462,220.817 212.387,221.000 212.500 C 221.183 212.613,221.333 212.522,221.333 212.297 C 221.333 212.073,221.424 211.980,221.535 212.091 C 221.647 212.202,222.050 212.002,222.432 211.647 C 222.813 211.291,223.477 211.000,223.907 211.000 C 224.336 211.000,224.772 210.781,224.875 210.513 C 225.055 210.042,226.239 209.466,226.750 209.601 C 226.887 209.637,227.000 209.508,227.000 209.314 C 227.000 209.120,227.150 209.053,227.333 209.167 C 227.517 209.280,227.667 209.205,227.667 209.000 C 227.667 208.795,227.817 208.720,228.000 208.833 C 228.183 208.947,228.333 208.872,228.333 208.667 C 228.333 208.462,228.483 208.387,228.667 208.500 C 228.850 208.613,229.000 208.538,229.000 208.333 C 229.000 208.128,229.150 208.053,229.333 208.167 C 229.517 208.280,229.667 208.205,229.667 208.000 C 229.667 207.795,229.817 207.720,230.000 207.833 C 230.183 207.947,230.333 207.872,230.333 207.667 C 230.333 207.462,230.468 207.377,230.632 207.478 C 230.796 207.580,231.022 207.423,231.135 207.130 C 231.253 206.821,231.552 206.679,231.845 206.792 C 232.127 206.900,232.591 206.707,232.892 206.356 C 233.192 206.005,233.656 205.811,233.937 205.919 C 234.267 206.046,234.359 205.978,234.202 205.723 C 234.069 205.509,234.082 205.322,234.230 205.309 C 235.404 205.201,236.223 204.913,236.533 204.499 C 236.734 204.230,236.997 204.108,237.116 204.227 C 237.236 204.347,237.333 204.261,237.333 204.036 C 237.333 203.811,237.483 203.720,237.667 203.833 C 237.850 203.947,238.000 203.872,238.000 203.667 C 238.000 203.462,238.150 203.387,238.333 203.500 C 238.517 203.613,238.667 203.558,238.667 203.377 C 238.667 203.197,239.119 202.823,239.672 202.547 C 240.314 202.227,240.598 202.188,240.457 202.439 C 240.335 202.656,240.566 202.493,240.971 202.076 C 241.375 201.659,241.847 201.406,242.020 201.512 C 242.192 201.619,242.333 201.538,242.333 201.333 C 242.333 201.128,242.483 201.053,242.667 201.167 C 242.850 201.280,243.000 201.205,243.000 201.000 C 243.000 200.795,243.150 200.720,243.333 200.833 C 243.517 200.947,243.667 200.874,243.667 200.671 C 243.667 200.201,247.013 198.635,247.445 198.903 C 247.625 199.013,247.663 198.931,247.532 198.718 C 247.377 198.467,247.577 198.333,248.106 198.333 C 248.553 198.333,249.124 198.080,249.376 197.769 C 249.661 197.418,249.681 197.297,249.429 197.448 C 249.202 197.585,248.739 197.405,248.373 197.040 C 248.015 196.682,247.633 196.478,247.524 196.587 C 247.415 196.696,247.019 196.455,246.643 196.052 C 246.268 195.648,245.819 195.406,245.647 195.512 C 245.474 195.619,245.333 195.538,245.333 195.333 C 245.333 195.128,245.194 195.047,245.023 195.152 C 244.852 195.258,244.305 194.967,243.808 194.505 C 242.807 193.578,242.519 193.453,242.838 194.083 C 242.954 194.313,242.836 194.240,242.575 193.922 C 242.314 193.604,242.003 193.441,241.884 193.561 C 241.764 193.680,241.667 193.594,241.667 193.369 C 241.667 193.145,241.529 193.046,241.360 193.150 C 241.192 193.254,240.854 193.151,240.610 192.920 C 240.366 192.689,239.867 192.452,239.500 192.394 C 239.133 192.335,238.646 192.044,238.417 191.747 C 238.188 191.449,238.000 191.338,238.000 191.500 C 238.000 191.662,237.764 191.503,237.475 191.147 C 237.187 190.791,237.033 190.668,237.134 190.873 C 237.243 191.093,236.852 191.034,236.177 190.728 C 235.550 190.444,235.126 190.065,235.236 189.887 C 235.346 189.709,235.277 189.662,235.082 189.783 C 234.613 190.073,233.619 189.680,233.855 189.298 C 234.037 189.004,233.569 188.868,232.746 188.976 C 232.514 189.006,232.236 188.800,232.127 188.518 C 232.019 188.235,231.800 188.084,231.641 188.183 C 231.481 188.281,231.095 188.063,230.783 187.698 C 230.470 187.333,230.091 187.110,229.941 187.203 C 229.790 187.297,229.667 187.205,229.667 187.000 C 229.667 186.795,229.517 186.720,229.333 186.833 C 229.150 186.947,229.000 186.872,229.000 186.667 C 229.000 186.462,228.850 186.387,228.667 186.500 C 228.483 186.613,228.333 186.538,228.333 186.333 C 228.333 186.128,228.183 186.053,228.000 186.167 C 227.817 186.280,227.667 186.205,227.667 186.000 C 227.667 185.795,227.517 185.720,227.333 185.833 C 227.150 185.947,227.000 185.855,227.000 185.631 C 227.000 185.406,226.902 185.320,226.783 185.439 C 226.664 185.559,226.352 185.396,226.092 185.078 C 225.831 184.760,225.700 184.668,225.801 184.873 C 225.910 185.093,225.519 185.034,224.844 184.728 C 224.216 184.444,223.778 184.090,223.869 183.943 C 223.960 183.795,223.803 183.763,223.520 183.872 C 223.217 183.988,222.921 183.850,222.801 183.536 C 222.689 183.244,222.463 183.087,222.298 183.188 C 222.134 183.290,222.000 183.205,222.000 183.000 C 222.000 182.795,221.850 182.720,221.667 182.833 C 221.483 182.947,221.333 182.872,221.333 182.667 C 221.333 182.462,221.183 182.387,221.000 182.500 C 220.817 182.613,220.667 182.538,220.667 182.333 C 220.667 182.128,220.526 182.048,220.353 182.154 C 220.181 182.261,219.742 182.029,219.379 181.639 C 219.015 181.248,218.572 181.019,218.394 181.129 C 218.216 181.239,217.980 181.096,217.871 180.810 C 217.761 180.525,217.534 180.376,217.366 180.480 C 216.936 180.746,215.966 180.325,216.186 179.969 C 216.286 179.807,216.167 179.751,215.922 179.845 C 215.677 179.939,215.160 179.722,214.774 179.362 C 214.387 179.001,213.980 178.798,213.869 178.909 C 213.758 179.020,213.667 178.927,213.667 178.703 C 213.667 178.478,213.517 178.387,213.333 178.500 C 213.150 178.613,213.000 178.538,213.000 178.333 C 213.000 178.128,212.850 178.053,212.667 178.167 C 212.483 178.280,212.333 178.214,212.333 178.020 C 212.333 177.826,212.221 177.684,212.083 177.706 C 211.379 177.817,210.986 177.626,211.202 177.277 C 211.364 177.014,211.261 176.956,210.888 177.100 C 210.583 177.217,210.333 177.167,210.333 176.990 C 210.333 176.812,210.115 176.667,209.849 176.667 C 209.070 176.667,207.672 175.928,207.863 175.618 C 207.960 175.461,207.918 175.322,207.770 175.308 C 206.782 175.214,206.163 174.988,206.061 174.683 C 205.996 174.488,205.806 174.414,205.638 174.518 C 205.471 174.621,205.333 174.538,205.333 174.333 C 205.333 174.128,205.183 174.053,205.000 174.167 C 204.817 174.280,204.667 174.205,204.667 174.000 C 204.667 173.795,204.521 173.718,204.342 173.828 C 204.164 173.938,203.755 173.722,203.435 173.348 C 203.114 172.973,202.505 172.667,202.082 172.667 C 201.659 172.667,201.230 172.451,201.129 172.188 C 201.028 171.924,200.734 171.790,200.475 171.889 C 200.217 171.988,199.914 171.829,199.801 171.536 C 199.689 171.244,199.463 171.087,199.298 171.188 C 199.134 171.290,199.000 171.205,199.000 171.000 C 199.000 170.795,198.850 170.720,198.667 170.833 C 198.483 170.947,198.333 170.872,198.333 170.667 C 198.333 170.462,198.183 170.387,198.000 170.500 C 197.817 170.613,197.667 170.538,197.667 170.333 C 197.667 170.128,197.529 170.046,197.360 170.150 C 197.192 170.254,196.851 170.151,196.602 169.920 C 196.354 169.689,195.929 169.450,195.659 169.390 C 195.388 169.329,195.047 169.067,194.900 168.806 C 194.753 168.546,194.266 168.333,193.817 168.333 C 193.368 168.333,192.728 168.061,192.396 167.729 C 192.064 167.397,191.614 167.184,191.396 167.257 C 191.178 167.329,190.910 167.152,190.799 166.863 C 190.688 166.574,190.463 166.420,190.298 166.522 C 190.134 166.623,190.000 166.538,190.000 166.333 C 190.000 166.128,189.850 166.053,189.667 166.167 C 189.483 166.280,189.333 166.205,189.333 166.000 C 189.333 165.795,189.183 165.720,189.000 165.833 C 188.817 165.947,188.667 165.872,188.667 165.667 C 188.667 165.462,188.507 165.393,188.311 165.514 C 188.116 165.635,187.730 165.456,187.453 165.117 C 187.177 164.778,187.044 164.686,187.159 164.913 C 187.294 165.179,187.193 165.259,186.876 165.137 C 186.606 165.033,186.299 164.726,186.195 164.453 C 186.090 164.181,185.854 164.051,185.669 164.165 C 185.484 164.279,185.333 164.205,185.333 164.000 C 185.333 163.795,185.183 163.720,185.000 163.833 C 184.817 163.947,184.667 163.872,184.667 163.667 C 184.667 163.462,184.529 163.379,184.360 163.483 C 184.192 163.588,183.853 163.472,183.607 163.226 C 183.362 162.981,182.975 162.842,182.747 162.918 C 182.520 162.993,182.243 162.819,182.132 162.530 C 182.021 162.240,181.796 162.087,181.632 162.188 C 181.468 162.290,181.333 162.205,181.333 162.000 C 181.333 161.795,181.183 161.720,181.000 161.833 C 180.817 161.947,180.667 161.872,180.667 161.667 C 180.667 161.462,180.522 161.383,180.345 161.492 C 180.169 161.602,179.731 161.398,179.373 161.040 C 179.015 160.682,178.635 160.476,178.528 160.583 C 178.421 160.690,178.333 160.594,178.333 160.369 C 178.333 160.145,178.183 160.053,178.000 160.167 C 177.817 160.280,177.667 160.219,177.667 160.030 C 177.667 159.842,177.443 159.773,177.169 159.878 C 176.886 159.987,176.584 159.840,176.468 159.536 C 176.355 159.244,176.129 159.087,175.965 159.188 C 175.801 159.290,175.667 159.205,175.667 159.000 C 175.667 158.795,175.517 158.720,175.333 158.833 C 175.150 158.947,175.000 158.872,175.000 158.667 C 175.000 158.462,174.850 158.387,174.667 158.500 C 174.483 158.613,174.333 158.538,174.333 158.333 C 174.333 158.128,174.183 158.053,174.000 158.167 C 173.817 158.280,173.667 158.250,173.667 158.100 C 173.667 157.950,173.351 157.630,172.965 157.389 C 172.384 157.026,172.302 157.027,172.490 157.392 C 172.623 157.652,172.534 157.628,172.274 157.333 C 170.977 155.868,171.000 155.142,171.000 197.314 " stroke="none" fill="#fbfbfb" fill-rule="evenodd"></path><path id="path1" d="M176.000 97.745 C 175.908 97.839,167.733 98.008,157.833 98.123 C 147.933 98.237,135.333 98.553,129.833 98.825 C 124.333 99.098,117.283 99.406,114.167 99.511 C 111.050 99.616,107.900 99.783,107.167 99.884 C 106.433 99.984,103.958 100.194,101.667 100.349 C 94.596 100.830,88.621 101.667,87.255 102.369 C 86.936 102.533,86.436 102.667,86.143 102.667 C 84.306 102.667,76.281 106.927,72.869 109.713 C 70.619 111.551,66.333 116.177,66.333 116.768 C 66.333 116.934,65.916 117.692,65.406 118.452 C 64.896 119.212,64.130 120.658,63.705 121.667 C 63.279 122.675,62.738 123.950,62.503 124.500 C 61.465 126.930,60.547 129.482,60.306 130.610 C 60.162 131.283,59.893 132.358,59.708 133.000 C 58.947 135.635,58.653 136.985,58.180 140.000 C 57.014 147.445,56.456 152.917,56.124 160.159 C 56.031 162.172,55.836 163.972,55.689 164.159 C 54.934 165.125,54.923 235.913,55.677 236.840 C 55.830 237.027,56.021 238.752,56.102 240.673 C 56.514 250.367,57.914 261.588,59.345 266.667 C 59.732 268.042,60.168 269.692,60.314 270.333 C 60.657 271.845,61.900 275.245,62.538 276.417 C 62.813 276.921,62.953 277.333,62.848 277.333 C 62.670 277.333,64.632 281.276,65.931 283.529 C 67.470 286.198,70.450 289.380,73.667 291.790 C 74.675 292.545,75.575 293.256,75.667 293.370 C 75.951 293.725,83.578 297.333,84.052 297.338 C 84.298 297.340,85.475 297.653,86.667 298.033 C 89.729 299.010,93.298 299.617,101.000 300.471 C 106.284 301.057,293.735 301.249,301.167 300.677 C 303.367 300.507,306.029 300.335,307.083 300.294 C 308.137 300.253,309.000 300.095,309.000 299.943 C 309.000 299.791,309.627 299.667,310.393 299.667 C 311.159 299.667,312.247 299.530,312.810 299.364 C 319.810 297.291,323.475 295.822,325.333 294.344 C 325.792 293.980,326.342 293.678,326.556 293.674 C 326.769 293.670,326.994 293.554,327.056 293.417 C 327.117 293.279,327.992 292.539,329.000 291.772 C 333.851 288.082,336.874 283.880,340.107 276.333 C 341.982 271.959,344.586 261.592,345.047 256.667 C 345.534 251.470,345.915 247.182,346.468 240.667 C 346.756 237.275,347.064 233.675,347.153 232.667 C 348.039 222.594,347.566 171.498,346.481 160.000 C 346.196 156.975,345.813 152.850,345.632 150.833 C 345.450 148.817,345.174 145.817,345.018 144.167 C 344.632 140.080,342.331 130.330,341.006 127.167 C 340.852 126.800,340.209 125.225,339.575 123.667 C 333.478 108.662,321.206 101.273,301.000 100.438 C 298.708 100.344,296.674 100.136,296.479 99.978 C 296.284 99.819,294.062 99.689,291.541 99.689 C 289.020 99.689,286.480 99.611,285.895 99.515 C 284.990 99.367,273.126 98.845,255.667 98.186 C 249.271 97.945,176.201 97.540,176.000 97.745 M176.549 159.284 C 179.272 160.724,185.625 164.004,190.667 166.574 C 195.708 169.144,200.808 171.772,202.000 172.414 C 203.192 173.057,206.267 174.672,208.833 176.004 C 226.961 185.413,230.135 187.075,230.500 187.349 C 230.683 187.487,232.633 188.535,234.833 189.678 C 239.268 191.982,245.233 195.096,247.909 196.504 C 250.016 197.612,250.009 197.627,246.575 199.296 C 245.067 200.030,242.708 201.252,241.333 202.014 C 239.958 202.775,236.208 204.754,233.000 206.411 C 229.792 208.068,225.142 210.472,222.667 211.753 C 220.192 213.034,215.992 215.207,213.333 216.582 C 207.988 219.347,202.572 222.169,197.500 224.833 C 195.667 225.796,191.692 227.858,188.667 229.416 C 185.642 230.974,180.525 233.613,177.295 235.281 C 174.066 236.948,171.329 238.218,171.212 238.101 C 170.875 237.764,170.961 156.667,171.299 156.667 C 171.463 156.667,173.825 157.845,176.549 159.284 " stroke="none" fill="#9c0404" fill-rule="evenodd"></path><path id="path2" d="M399.832 200.000 C 399.832 281.308,399.870 314.571,399.917 273.917 C 399.963 233.263,399.963 166.738,399.917 126.083 C 399.870 85.429,399.832 118.692,399.832 200.000 M138.750 98.230 C 139.071 98.314,139.596 98.314,139.917 98.230 C 140.237 98.146,139.975 98.077,139.333 98.077 C 138.692 98.077,138.429 98.146,138.750 98.230 M256.750 98.230 C 257.071 98.314,257.596 98.314,257.917 98.230 C 258.237 98.146,257.975 98.077,257.333 98.077 C 256.692 98.077,256.429 98.146,256.750 98.230 M126.083 399.917 C 166.738 399.963,233.263 399.963,273.917 399.917 C 314.571 399.870,281.308 399.832,200.000 399.832 C 118.692 399.832,85.429 399.870,126.083 399.917 " stroke="none" fill="#4e4e4e" fill-rule="evenodd"></path><path id="path3" d="M347.103 166.167 C 347.105 167.267,347.167 167.676,347.242 167.077 C 347.316 166.478,347.314 165.578,347.238 165.077 C 347.162 164.576,347.101 165.067,347.103 166.167 M347.103 234.833 C 347.105 235.933,347.167 236.343,347.242 235.744 C 347.316 235.145,347.314 234.245,347.238 233.744 C 347.162 233.243,347.101 233.733,347.103 234.833 " stroke="none" fill="#7c7c7c" fill-rule="evenodd"></path><path id="path4" d="" stroke="none" fill="#848484" fill-rule="evenodd"></path><path id="path5" d="" stroke="none" fill="#cc443c" fill-rule="evenodd"></path><path id="path6" d="" stroke="none" fill="#cc0440" fill-rule="evenodd"></path><path id="path7" d="" stroke="none" fill="#d00404" fill-rule="evenodd"></path><path id="path8" d="" stroke="none" fill="#a00404" fill-rule="evenodd"></path></g></svg>